# Blender v2.76 (sub 0) OBJ File: ''
# www.blender.org
mtllib shrubTrunk.mtl
o polySurface333_polySurface173
v -0.554067 2.394545 -0.402550
v -0.684865 2.394545 0.000006
v -0.499204 5.551325 0.000006
v -0.403860 5.551323 -0.293417
v -0.211633 2.394543 -0.651343
v -0.154260 5.551321 -0.474762
v 0.211638 2.394545 -0.651343
v 0.154265 5.551323 -0.474762
v 0.554072 2.394547 -0.402548
v 0.403864 5.551323 -0.293417
v 0.684870 2.394547 0.000006
v 0.499205 5.551325 0.000006
v 0.554069 2.394545 0.402561
v 0.403864 5.551323 0.293429
v 0.211638 2.394543 0.651354
v 0.154265 5.551321 0.474774
v -0.211633 2.394543 0.651354
v -0.154260 5.551323 0.474774
v -0.554067 2.394543 0.402561
v -0.403863 5.551325 0.293431
v -0.090108 5.868816 0.277338
v -0.235921 5.868820 0.171408
v -0.291612 5.868822 0.000006
v -0.235914 5.868816 -0.171396
v -0.090108 5.868814 -0.277326
v 0.090113 5.868816 -0.277326
v 0.235915 5.868816 -0.171394
v 0.291605 5.868816 0.000006
v 0.235915 5.868816 0.171406
v 0.090113 5.868816 0.277338
v 0.000002 6.089561 0.000006
v 0.809020 0.034760 -0.587781
v 0.309020 0.034760 -0.951050
v -0.309015 0.034760 -0.951050
v -0.809019 0.034763 -0.587781
v -0.999998 0.034760 0.000005
v -0.809011 0.034756 0.587789
v -0.309015 0.034760 0.951063
v 0.309020 0.034760 0.951063
v 0.809020 0.034760 0.587791
v 1.000002 0.034760 0.000005
vt 0.395982 0.692302
vt 0.395831 0.954181
vt 0.298336 0.954181
vt 0.298286 0.692302
vt 0.200872 0.954181
vt 0.103001 0.692302
vt 0.200622 0.692302
vt 0.005433 0.692302
vt 0.103451 0.954181
vt 0.884563 0.692302
vt 0.982224 0.692302
vt 0.980870 0.954181
vt 0.883410 0.954181
vt 0.785918 0.954181
vt 0.786870 0.692302
vt 0.688402 0.954181
vt 0.591427 0.692302
vt 0.689154 0.692302
vt 0.493700 0.692302
vt 0.590875 0.954181
vt 0.493348 0.954181
vt 0.590820 0.980547
vt 0.493313 0.980547
vt 0.395816 0.980547
vt 0.298341 0.980547
vt 0.200897 0.980547
vt 0.103496 0.980547
vt 0.006149 0.980547
vt 0.980734 0.980547
vt 0.883294 0.980547
vt 0.785822 0.980547
vt 0.688326 0.980547
vt 0.542035 0.998879
vt 0.444547 0.998879
vt 0.347075 0.998879
vt 0.249629 0.998879
vt 0.152221 0.998879
vt 0.054861 0.998879
vt 0.931926 0.998879
vt 0.834484 0.998879
vt 0.737014 0.998879
vt 0.639527 0.998879
vt -0.001231 0.002482
vt 0.098388 0.002482
vt 0.099028 0.258845
vt 0.198061 0.002482
vt 0.198417 0.258845
vt 0.297778 0.002482
vt 0.297849 0.258845
vt 0.397529 0.002482
vt 0.397314 0.258845
vt 0.497300 0.002482
vt 0.496800 0.258845
vt 0.597083 0.002482
vt 0.596298 0.258845
vt 0.696864 0.002482
vt 0.695794 0.258845
vt 0.796635 0.002482
vt 0.795279 0.258845
vt 0.896382 0.002482
vt 0.894741 0.258845
vt 0.996095 0.002482
vt 0.994170 0.258845
vt 0.006084 0.954181
vt -0.000306 0.258845
vn -0.995400 0.095700 0.000000
vn -0.948900 0.315500 -0.000000
vn -0.766400 0.315300 -0.559600
vn -0.805600 0.096300 -0.584500
vn -0.291200 0.315200 -0.903200
vn 0.307600 0.095600 -0.946700
vn -0.308300 0.096300 -0.946400
vn 0.805300 0.095700 -0.585100
vn 0.291100 0.315400 -0.903200
vn 0.995400 0.095500 0.000000
vn 0.766500 0.315200 -0.559600
vn 0.954500 0.297800 -0.016900
vn 0.766400 0.315300 0.559600
vn 0.805500 0.096300 0.584700
vn 0.291200 0.315200 0.903200
vn -0.307600 0.095600 0.946700
vn 0.308300 0.096300 0.946400
vn -0.805300 0.095700 0.585100
vn -0.291100 0.315300 0.903200
vn -0.766400 0.315300 0.559600
vn -0.247500 0.674900 0.695200
vn -0.584300 0.678700 0.444900
vn -0.749200 0.661900 0.023200
vn -0.584300 0.678700 -0.444900
vn -0.211100 0.678800 -0.703300
vn 0.209400 0.661900 -0.719700
vn 0.603700 0.678800 -0.418100
vn 0.749200 0.661900 -0.023200
vn 0.584300 0.678700 0.444900
vn 0.211100 0.678800 0.703300
vn 0.000000 1.000000 -0.000000
vn 0.801900 0.132400 -0.582600
vn 0.306300 0.132400 -0.942700
vn -0.306300 0.132400 -0.942700
vn -0.801900 0.132400 -0.582600
vn -0.991200 0.132400 0.000000
vn -0.801900 0.132400 0.582600
vn -0.306300 0.132400 0.942700
vn 0.306300 0.132400 0.942700
vn 0.801900 0.132400 0.582600
vn 0.991200 0.132400 0.000000
usemtl None
s 1
f 2/1/1 3/2/2 4/3/3
f 1/4/4 4/3/3 6/5/5
f 7/6/6 5/7/7 6/5/5
f 9/8/8 7/6/6 8/9/9
f 11/10/10 9/11/8 10/12/11
f 11/10/10 12/13/12 14/14/13
f 13/15/14 14/14/13 16/16/15
f 17/17/16 15/18/17 16/16/15
f 19/19/18 17/17/16 18/20/19
f 2/1/1 19/19/18 20/21/20
f 20/21/20 18/20/19 21/22/21
f 3/2/2 20/21/20 22/23/22
f 3/2/2 23/24/23 24/25/24
f 4/3/3 24/25/24 25/26/25
f 8/9/9 6/5/5 25/26/25
f 8/9/9 26/27/26 27/28/27
f 12/13/12 10/12/11 27/29/27
f 12/13/12 28/30/28 29/31/29
f 14/14/13 29/31/29 30/32/30
f 18/20/19 16/16/15 30/32/30
f 22/23/22 21/22/21 31/33/31
f 23/24/23 22/23/22 31/34/31
f 24/25/24 23/24/23 31/35/31
f 25/26/25 24/25/24 31/36/31
f 26/27/26 25/26/25 31/37/31
f 27/28/27 26/27/26 31/38/31
f 28/30/28 27/29/27 31/39/31
f 29/31/29 28/30/28 31/40/31
f 30/32/30 29/31/29 31/41/31
f 21/22/21 30/32/30 31/42/31
f 32/43/32 33/44/33 7/45/6
f 33/44/33 34/46/34 5/47/7
f 35/48/35 1/49/4 5/47/7
f 35/48/35 36/50/36 2/51/1
f 36/50/36 37/52/37 19/53/18
f 38/54/38 17/55/16 19/53/18
f 39/56/39 15/57/17 17/55/16
f 40/58/40 13/59/14 15/57/17
f 41/60/41 11/61/10 13/59/14
f 41/60/41 32/62/32 9/63/8
f 1/4/4 2/1/1 4/3/3
f 5/7/7 1/4/4 6/5/5
f 8/9/9 7/6/6 6/5/5
f 10/64/11 9/8/8 8/9/9
f 12/13/12 11/10/10 10/12/11
f 13/15/14 11/10/10 14/14/13
f 15/18/17 13/15/14 16/16/15
f 18/20/19 17/17/16 16/16/15
f 20/21/20 19/19/18 18/20/19
f 3/2/2 2/1/1 20/21/20
f 22/23/22 20/21/20 21/22/21
f 23/24/23 3/2/2 22/23/22
f 4/3/3 3/2/2 24/25/24
f 6/5/5 4/3/3 25/26/25
f 26/27/26 8/9/9 25/26/25
f 10/64/11 8/9/9 27/28/27
f 28/30/28 12/13/12 27/29/27
f 14/14/13 12/13/12 29/31/29
f 16/16/15 14/14/13 30/32/30
f 21/22/21 18/20/19 30/32/30
f 9/65/8 32/43/32 7/45/6
f 7/45/6 33/44/33 5/47/7
f 34/46/34 35/48/35 5/47/7
f 1/49/4 35/48/35 2/51/1
f 2/51/1 36/50/36 19/53/18
f 37/52/37 38/54/38 19/53/18
f 38/54/38 39/56/39 17/55/16
f 39/56/39 40/58/40 15/57/17
f 40/58/40 41/60/41 13/59/14
f 11/61/10 41/60/41 9/63/8
